<svg width="20" height="23" viewBox="0 0 20 23" fill="none" xmlns="http://www.w3.org/2000/svg">
<path d="M9.471 0.405646C9.37499 0.290196 9.25683 0.195135 9.1235 0.126068C8.99016 0.0570011 8.84436 0.0153248 8.69466 0.0034961C8.54497 -0.00833265 8.39443 0.00992552 8.2519 0.0571944C8.10938 0.104463 7.97776 0.179786 7.8648 0.278723C7.75184 0.37766 7.65984 0.498209 7.5942 0.633264C7.52857 0.768319 7.49063 0.915147 7.48264 1.06509C7.47464 1.21504 7.49674 1.36507 7.54764 1.50634C7.59854 1.64761 7.67721 1.77726 7.779 1.88765L8.8095 3.06665C6.93005 3.24879 5.14393 3.97276 3.66808 5.15063C2.19223 6.3285 1.09016 7.90957 0.495729 9.70182C-0.0987043 11.4941 -0.159922 13.4204 0.319512 15.2467C0.798947 17.0731 1.7984 18.721 3.19648 19.9902C4.59457 21.2594 6.33111 22.0953 8.1952 22.3964C10.0593 22.6975 11.9707 22.4509 13.6973 21.6864C15.4239 20.9219 16.8913 19.6726 17.9214 18.09C18.9515 16.5075 19.4999 14.6599 19.5 12.7716V12.3966C19.5 12.0983 19.3815 11.8121 19.1705 11.6012C18.9595 11.3902 18.6734 11.2716 18.375 11.2716C18.0766 11.2716 17.7905 11.3902 17.5795 11.6012C17.3685 11.8121 17.25 12.0983 17.25 12.3966V12.7716C17.2498 14.2105 16.8358 15.6189 16.0573 16.8289C15.2788 18.0389 14.1687 18.9994 12.8594 19.5959C11.55 20.1924 10.0967 20.3997 8.67282 20.1931C7.24892 19.9864 5.91451 19.3746 4.82876 18.4305C3.743 17.4864 2.95173 16.2499 2.54931 14.8685C2.1469 13.4871 2.15033 12.0191 2.55919 10.6396C2.96805 9.26009 3.76509 8.02731 4.85525 7.08829C5.9454 6.14927 7.28265 5.54364 8.7075 5.34365L7.7775 6.40565C7.68019 6.51694 7.60576 6.64631 7.55844 6.78638C7.51113 6.92644 7.49187 7.07445 7.50176 7.22195C7.51165 7.36946 7.5505 7.51357 7.61608 7.64607C7.68167 7.77856 7.77271 7.89684 7.884 7.99415C7.9953 8.09146 8.12467 8.16589 8.26473 8.2132C8.40479 8.26051 8.5528 8.27977 8.70031 8.26989C8.84781 8.26 8.99193 8.22115 9.12442 8.15556C9.25691 8.08998 9.37519 7.99894 9.4725 7.88765L12.0975 4.88765C12.277 4.68254 12.376 4.41923 12.376 4.14665C12.376 3.87406 12.277 3.61075 12.0975 3.40565L9.471 0.405646ZM14.7075 9.39065C14.9081 9.6113 15.0128 9.90256 14.9988 10.2004C14.9847 10.4983 14.853 10.7784 14.6325 10.9791L10.5075 14.7291C10.2935 14.9236 10.0128 15.0282 9.72374 15.0212C9.43466 15.0143 9.15937 14.8962 8.955 14.6916L7.08 12.8166C6.88128 12.6034 6.7731 12.3213 6.77824 12.0299C6.78338 11.7384 6.90145 11.4603 7.10757 11.2542C7.31369 11.0481 7.59177 10.93 7.88322 10.9249C8.17467 10.9197 8.45674 11.0279 8.67 11.2266L9.7875 12.3426L13.1175 9.31415C13.2268 9.2146 13.3546 9.13758 13.4937 9.08747C13.6328 9.03736 13.7804 9.01515 13.928 9.02212C14.0757 9.02908 14.2206 9.06508 14.3543 9.12806C14.488 9.19104 14.6081 9.28126 14.7075 9.39065Z" fill="white" fill-opacity="0.7"/>
</svg>
