<svg width="24" height="24" viewBox="0 0 24 24" fill="none" xmlns="http://www.w3.org/2000/svg">
<g clip-path="url(#clip0_16_839)">
<path d="M11.9996 22.8533C12.4195 22.8437 12.8225 22.6858 13.1373 22.4076C13.4521 22.1295 13.6583 21.7489 13.7196 21.3333H10.2129C10.2759 21.7602 10.4918 22.1497 10.8204 22.4293C11.1491 22.7089 11.5681 22.8596 11.9996 22.8533Z" fill="#666666"/>
<path d="M21.8994 18.7534L21.6727 18.5534C21.0297 17.9805 20.4668 17.3234 19.9994 16.6001C19.4889 15.6018 19.1829 14.5116 19.0994 13.3934V10.1001C19.0967 9.70005 19.061 9.30092 18.9927 8.90674C17.8635 8.67464 16.8491 8.05942 16.1214 7.16527C15.3937 6.27111 14.9973 5.15294 14.9994 4.00008V3.58008C14.3033 3.23754 13.5555 3.01228 12.786 2.91341V2.07341C12.786 1.83737 12.6923 1.61099 12.5254 1.44409C12.3585 1.27718 12.1321 1.18341 11.896 1.18341C11.66 1.18341 11.4336 1.27718 11.2667 1.44409C11.0998 1.61099 11.006 1.83737 11.006 2.07341V2.94674C9.28319 3.18978 7.70643 4.04791 6.56686 5.3627C5.42729 6.67749 4.80187 8.36017 4.80605 10.1001V13.3934C4.72255 14.5116 4.41657 15.6018 3.90605 16.6001C3.44664 17.3216 2.89284 17.9786 2.25938 18.5534L2.03271 18.7534V20.6334H21.8994V18.7534Z" fill="#666666"/>
<path d="M19.9993 7.33335C21.8403 7.33335 23.3327 5.84097 23.3327 4.00002C23.3327 2.15907 21.8403 0.666687 19.9993 0.666687C18.1584 0.666687 16.666 2.15907 16.666 4.00002C16.666 5.84097 18.1584 7.33335 19.9993 7.33335Z" fill="#FF6500"/>
</g>
<defs>
<clipPath id="clip0_16_839">
<rect width="24" height="24" fill="white"/>
</clipPath>
</defs>
</svg>
